<svg xmlns="http://www.w3.org/2000/svg" viewBox="0 0 920 880" width="920" height="880">
  <path d="M320,0h20v20h-20ZM360,0h20v20h-20ZM400,0h20v20h-20ZM440,0h20v20h-20ZM480,0h20v20h-20ZM520,0h20v20h-20ZM560,0h20v20h-20ZM600,0h20v20h-20ZM500,20h20v20h-20ZM580,20h20v20h-20ZM660,20h20v20h-20ZM200,40h20v20h-20ZM240,40h20v20h-20ZM280,40h20v20h-20ZM320,40h20v20h-20ZM360,40h20v20h-20ZM400,40h20v20h-20ZM440,40h20v20h-20ZM520,40h20v20h-20ZM560,40h20v20h-20ZM600,40h20v20h-20ZM640,40h20v20h-20ZM680,40h20v20h-20ZM580,60h20v20h-20ZM660,60h20v20h-20ZM200,80h20v20h-20ZM280,80h20v20h-20ZM320,80h20v20h-20ZM360,80h20v20h-20ZM400,80h20v20h-20ZM440,80h20v20h-20ZM480,80h20v20h-20ZM520,80h20v20h-20ZM560,80h20v20h-20ZM600,80h20v20h-20ZM640,80h20v20h-20ZM680,80h20v20h-20ZM720,80h20v20h-20ZM460,100h20v20h-20ZM540,100h20v20h-20ZM620,100h20v20h-20ZM660,100h20v20h-20ZM700,100h20v20h-20ZM740,100h20v20h-20ZM160,120h20v20h-20ZM200,120h20v20h-20ZM240,120h20v20h-20ZM280,120h20v20h-20ZM320,120h20v20h-20ZM360,120h20v20h-20ZM400,120h20v20h-20ZM440,120h20v20h-20ZM520,120h20v20h-20ZM560,120h20v20h-20ZM600,120h20v20h-20ZM640,120h20v20h-20ZM680,120h20v20h-20ZM720,120h20v20h-20ZM760,120h20v20h-20ZM460,140h20v20h-20ZM540,140h20v20h-20ZM700,140h20v20h-20ZM780,140h20v20h-20ZM80,160h20v20h-20ZM200,160h20v20h-20ZM240,160h20v20h-20ZM320,160h20v20h-20ZM360,160h20v20h-20ZM440,160h20v20h-20ZM560,160h20v20h-20ZM680,160h20v20h-20ZM800,160h20v20h-20ZM340,180h20v20h-20ZM580,180h20v20h-20ZM700,180h20v20h-20ZM780,180h20v20h-20ZM820,180h20v20h-20ZM80,200h20v20h-20ZM200,200h20v20h-20ZM320,200h20v20h-20ZM440,200h20v20h-20ZM560,200h20v20h-20ZM680,200h20v20h-20ZM720,200h20v20h-20ZM800,200h60v20h-60ZM580,220h20v20h-20ZM700,220h20v20h-20ZM820,220h20v20h-20ZM860,220h20v20h-20ZM40,240h20v20h-20ZM200,240h20v20h-20ZM240,240h20v20h-20ZM280,240h20v20h-20ZM320,240h20v20h-20ZM360,240h20v20h-20ZM400,240h20v20h-20ZM440,240h20v20h-20ZM480,240h20v20h-20ZM520,240h20v20h-20ZM560,240h20v20h-20ZM600,240h20v20h-20ZM640,240h20v20h-20ZM680,240h20v20h-20ZM720,240h20v20h-20ZM840,240h20v20h-20ZM220,260h20v20h-20ZM300,260h20v20h-20ZM380,260h20v20h-20ZM460,260h20v20h-20ZM500,260h20v20h-20ZM540,260h20v20h-20ZM580,260h20v20h-20ZM620,260h20v20h-20ZM660,260h20v20h-20ZM700,260h20v20h-20ZM740,260h20v20h-20ZM780,260h20v20h-20ZM820,260h20v20h-20ZM860,260h20v20h-20ZM40,280h20v20h-20ZM80,280h20v20h-20ZM120,280h20v20h-20ZM160,280h20v20h-20ZM200,280h20v20h-20ZM240,280h20v20h-20ZM280,280h20v20h-20ZM320,280h20v20h-20ZM360,280h20v20h-20ZM400,280h20v20h-20ZM440,280h20v20h-20ZM520,280h20v20h-20ZM560,280h20v20h-20ZM600,280h20v20h-20ZM640,280h20v20h-20ZM680,280h20v20h-20ZM720,280h20v20h-20ZM760,280h60v20h-60ZM840,280h60v20h-60ZM300,300h20v20h-20ZM460,300h20v20h-20ZM580,300h20v20h-20ZM740,300h20v20h-20ZM860,300h20v20h-20ZM40,320h20v20h-20ZM160,320h20v20h-20ZM320,320h20v20h-20ZM440,320h20v20h-20ZM600,320h20v20h-20ZM720,320h20v20h-20ZM860,320h40v20h-40ZM180,340h20v20h-20ZM460,340h20v20h-20ZM580,340h20v20h-20ZM740,340h20v20h-20ZM860,340h20v20h-20ZM40,360h20v20h-20ZM160,360h20v20h-20ZM320,360h20v20h-20ZM440,360h20v20h-20ZM580,360h40v20h-40ZM720,360h40v20h-40ZM860,360h60v20h-60ZM580,380h20v20h-20ZM740,380h20v20h-20ZM860,380h20v20h-20ZM900,380h20v20h-20ZM0,400h20v20h-20ZM40,400h20v20h-20ZM80,400h20v20h-20ZM120,400h20v20h-20ZM160,400h20v20h-20ZM200,400h20v20h-20ZM240,400h20v20h-20ZM280,400h20v20h-20ZM320,400h20v20h-20ZM360,400h20v20h-20ZM400,400h20v20h-20ZM440,400h20v20h-20ZM480,400h20v20h-20ZM520,400h20v20h-20ZM560,400h20v20h-20ZM600,400h20v20h-20ZM640,400h20v20h-20ZM680,400h20v20h-20ZM720,400h60v20h-60ZM800,400h60v20h-60ZM880,400h40v20h-40ZM60,420h20v20h-20ZM140,420h20v20h-20ZM220,420h20v20h-20ZM300,420h20v20h-20ZM340,420h20v20h-20ZM380,420h20v20h-20ZM420,420h20v20h-20ZM460,420h20v20h-20ZM500,420h20v20h-20ZM540,420h20v20h-20ZM580,420h20v20h-20ZM620,420h20v20h-20ZM660,420h20v20h-20ZM700,420h20v20h-20ZM740,420h20v20h-20ZM780,420h20v20h-20ZM820,420h20v20h-20ZM860,420h20v20h-20ZM900,420h20v20h-20ZM0,440h20v20h-20ZM40,440h20v20h-20ZM80,440h20v20h-20ZM120,440h20v20h-20ZM160,440h20v20h-20ZM200,440h20v20h-20ZM240,440h20v20h-20ZM280,440h20v20h-20ZM320,440h20v20h-20ZM360,440h20v20h-20ZM400,440h20v20h-20ZM440,440h20v20h-20ZM480,440h20v20h-20ZM520,440h60v20h-60ZM600,440h60v20h-60ZM680,440h60v20h-60ZM760,440h60v20h-60ZM840,440h80v20h-80ZM300,460h20v20h-20ZM460,460h20v20h-20ZM580,460h20v20h-20ZM740,460h20v20h-20ZM860,460h20v20h-20ZM900,460h20v20h-20ZM40,480h20v20h-20ZM160,480h20v20h-20ZM320,480h20v20h-20ZM440,480h20v20h-20ZM600,480h20v20h-20ZM720,480h20v20h-20ZM860,480h60v20h-60ZM20,500h20v20h-20ZM180,500h20v20h-20ZM300,500h20v20h-20ZM460,500h20v20h-20ZM580,500h20v20h-20ZM740,500h20v20h-20ZM860,500h20v20h-20ZM40,520h20v20h-20ZM160,520h20v20h-20ZM320,520h20v20h-20ZM440,520h20v20h-20ZM580,520h40v20h-40ZM720,520h40v20h-40ZM860,520h40v20h-40ZM20,540h20v20h-20ZM180,540h20v20h-20ZM300,540h20v20h-20ZM460,540h20v20h-20ZM580,540h20v20h-20ZM740,540h20v20h-20ZM860,540h20v20h-20ZM40,560h20v20h-20ZM80,560h20v20h-20ZM120,560h20v20h-20ZM160,560h20v20h-20ZM200,560h20v20h-20ZM240,560h20v20h-20ZM280,560h20v20h-20ZM320,560h20v20h-20ZM360,560h20v20h-20ZM400,560h20v20h-20ZM440,560h20v20h-20ZM480,560h20v20h-20ZM520,560h20v20h-20ZM560,560h60v20h-60ZM640,560h60v20h-60ZM720,560h60v20h-60ZM800,560h100v20h-100ZM60,580h20v20h-20ZM100,580h20v20h-20ZM140,580h20v20h-20ZM180,580h20v20h-20ZM220,580h20v20h-20ZM260,580h20v20h-20ZM300,580h20v20h-20ZM340,580h20v20h-20ZM380,580h20v20h-20ZM420,580h20v20h-20ZM460,580h20v20h-20ZM500,580h20v20h-20ZM540,580h20v20h-20ZM580,580h20v20h-20ZM620,580h20v20h-20ZM660,580h20v20h-20ZM700,580h20v20h-20ZM740,580h20v20h-20ZM780,580h20v20h-20ZM820,580h20v20h-20ZM860,580h20v20h-20ZM40,600h20v20h-20ZM80,600h20v20h-20ZM200,600h20v20h-20ZM320,600h20v20h-20ZM380,600h40v20h-40ZM440,600h60v20h-60ZM520,600h20v20h-20ZM560,600h20v20h-20ZM600,600h20v20h-20ZM700,600h40v20h-40ZM820,600h60v20h-60ZM60,620h20v20h-20ZM180,620h20v20h-20ZM220,620h20v20h-20ZM340,620h20v20h-20ZM460,620h20v20h-20ZM580,620h20v20h-20ZM700,620h20v20h-20ZM820,620h20v20h-20ZM80,640h20v20h-20ZM200,640h20v20h-20ZM320,640h20v20h-20ZM440,640h40v20h-40ZM560,640h20v20h-20ZM680,640h60v20h-60ZM800,640h60v20h-60ZM100,660h20v20h-20ZM220,660h20v20h-20ZM340,660h20v20h-20ZM460,660h20v20h-20ZM580,660h20v20h-20ZM660,660h20v20h-20ZM700,660h20v20h-20ZM780,660h20v20h-20ZM820,660h20v20h-20ZM80,680h20v20h-20ZM120,680h20v20h-20ZM200,680h20v20h-20ZM240,680h20v20h-20ZM320,680h60v20h-60ZM440,680h20v20h-20ZM540,680h60v20h-60ZM660,680h60v20h-60ZM760,680h80v20h-80ZM100,700h20v20h-20ZM140,700h20v20h-20ZM220,700h20v20h-20ZM260,700h20v20h-20ZM340,700h20v20h-20ZM460,700h20v20h-20ZM540,700h20v20h-20ZM580,700h20v20h-20ZM660,700h20v20h-20ZM740,700h20v20h-20ZM780,700h20v20h-20ZM120,720h20v20h-20ZM160,720h20v20h-20ZM200,720h20v20h-20ZM240,720h20v20h-20ZM280,720h20v20h-20ZM320,720h20v20h-20ZM360,720h20v20h-20ZM400,720h60v20h-60ZM480,720h60v20h-60ZM560,720h60v20h-60ZM640,720h160v20h-160ZM140,740h20v20h-20ZM180,740h20v20h-20ZM220,740h20v20h-20ZM260,740h20v20h-20ZM300,740h20v20h-20ZM340,740h20v20h-20ZM380,740h20v20h-20ZM420,740h20v20h-20ZM460,740h20v20h-20ZM500,740h20v20h-20ZM540,740h20v20h-20ZM580,740h20v20h-20ZM620,740h20v20h-20ZM660,740h20v20h-20ZM700,740h20v20h-20ZM740,740h20v20h-20ZM160,760h20v20h-20ZM200,760h40v20h-40ZM280,760h40v20h-40ZM360,760h60v20h-60ZM440,760h140v20h-140ZM600,760h60v20h-60ZM680,760h80v20h-80ZM180,780h20v20h-20ZM220,780h20v20h-20ZM260,780h20v20h-20ZM300,780h20v20h-20ZM380,780h20v20h-20ZM460,780h20v20h-20ZM500,780h20v20h-20ZM540,780h20v20h-20ZM580,780h20v20h-20ZM620,780h20v20h-20ZM660,780h20v20h-20ZM700,780h20v20h-20ZM220,800h40v20h-40ZM280,800h60v20h-60ZM360,800h60v20h-60ZM440,800h40v20h-40ZM500,800h220v20h-220ZM260,820h20v20h-20ZM300,820h20v20h-20ZM340,820h20v20h-20ZM380,820h20v20h-20ZM420,820h20v20h-20ZM460,820h20v20h-20ZM500,820h20v20h-20ZM540,820h20v20h-20ZM580,820h20v20h-20ZM620,820h20v20h-20ZM660,820h20v20h-20ZM300,840h340v20h-340ZM380,860h20v20h-20ZM420,860h20v20h-20ZM460,860h20v20h-20ZM500,860h20v20h-20ZM540,860h20v20h-20Z" fill="black"/>
</svg>